<svg xmlns:xlink="http://www.w3.org/1999/xlink" xmlns="http://www.w3.org/2000/svg" aria-label="Avatar of Fernando Paredes" viewBox="0 0 112 112">
    <defs>
        <circle id="a" cx="56" cy="56" r="56"/>
    </defs>
    <g fill="none" fill-rule="evenodd">
        <mask id="b" fill="#fff">
            <use xlink:href="#a"/>
        </mask>
        <use xlink:href="#a" fill="#FFCF56"/>
        <g fill-rule="nonzero" mask="url(#b)">
            <path fill="#14D785" d="M21 120c6-10.4 15-19 25.8-24.6-1 .9-.6 2.4.3 3.2.9.8 2.2 1 3.4 1.1A53 53 0 0 0 74 94c1-1 1.7-2.7 1-4 7.3 3 14.7 6.3 19.8 12.2a40.8 40.8 0 0 1 7.1 14.6c-.2.6-.8.7-1.4.8-12.3 1-24.6-.2-37-.3-10.6-.1-21.3.5-32 1.1l-10.4.6"/>
            <path fill="#FFF" d="M22.8 48.2c-2 1-3.2 3.6-2.7 6a6 6 0 0 0 4.9 4.4c1.2.2 2.8.2 3.5 1.2.3.5.4 1.1.5 1.7a29 29 0 0 0 18.6 23.3c1.3.5 2.6.9 3.4 2 1 1.5.5 3.6-.3 5.3-.9 1.7-1.8 3.6-1.3 5.4.5 1.9 2.4 3 4.2 3.6 5.9 1.8 12.2.6 18-1.2 2-.6 4-1.5 4.5-3.5.6-2.7-2.8-4.8-3.2-7.6-.2-2 1-3.7 2.6-5 1.4-1.1 3.2-2 4.6-3.3a15 15 0 0 0 3.3-5.7c2-5.5 3-11.5 2.6-17.4 0-.6-.1-1.3.2-1.8.4-.7 1.4-.9 2.2-1.2 3.2-1 5.3-4.7 4.4-8-1-3.2-5-5.3-8-3.9-.2-4.7-.3-9.4-1.4-14-1-4.6-3-9-6.4-12.4-3.2-3.2-7.4-5-11.6-6.5a36.5 36.5 0 0 0-13-2.6c-5.5.2-18.7 5.1-25.4 17.3-4.3 7.9-1.5 23.4-1.3 23.5l-2.9.4z"/>
            <g fill="#000">
                <path d="M25.7 43.8c.2 4.8.4 9.6 1 14.4.7 4.5 1.8 9.1 4 13.2a30.1 30.1 0 0 0 13 12.9 22 22 0 0 0 4.8 1.6h.5a1 1 0 0 1-.4-.2s-.2-.3 0 0c0 .1-.2-.3 0 0l.2.8a23.5 23.5 0 0 1 .7 5.9v.5c-.1.2 0 0 0 0l-.1.3c-.2.6.2 1.3.8 1.4.6.2 1.3-.2 1.4-.8.3-1.4.2-3 0-4.4-.1-1.4-.3-2.8-.7-4.2-.2-.5-.4-1-1-1.4l-1-.2-1.5-.4a20 20 0 0 1-5.2-2.4 27.8 27.8 0 0 1-8.5-8.6c-2.3-3.8-3.5-8.1-4.3-12.5-1-5.2-1.2-10.6-1.4-16 0-1.4-2.4-1.4-2.3 0zm45.7 48.9c-.5-2.7-.6-5.5-.4-8.3l-.6 1c6.2-2.7 9.9-9 12-15a62 62 0 0 0-.4-36.9c-.2-.6-.9-1-1.5-.9-.6.2-1 .9-.8 1.5a61 61 0 0 1 2.7 23.4c-.5 6.7-2 13.7-5.7 19.4a17.2 17.2 0 0 1-7.4 6.5c-.4.2-.6.6-.6 1-.3 3-.1 6 .4 9 .2.5.9.9 1.5.7.6-.1 1-.8.8-1.4zM40.7 50.3v1l.1.5.3.4.4.2.4.1h.3c.2 0 .4-.2.5-.3l.2-.3.2-.5v-1l-.1-.5a1 1 0 0 0-.3-.4.9.9 0 0 0-.3-.3.9.9 0 0 0-.5 0h-.3c-.2 0-.4.1-.5.3l-.2.2-.2.6zM68 45.8v1.3l.1.5.3.4.3.2.5.1h.3c.2 0 .4-.2.5-.3.2-.3.4-.5.4-.9V46l-.1-.5a1 1 0 0 0-.3-.4.9.9 0 0 0-.4-.2.9.9 0 0 0-.4-.1h-.3c-.2 0-.4.2-.5.3-.3.2-.4.5-.4.8zM55.2 50a81 81 0 0 1 4.3 5.2l.4.4v.1l.2-.2-1 .7c-1 .5-1.9.8-2.8 1-.6.2-1 .9-.8 1.5.1.6.8 1 1.4.8 1.2-.3 2.4-.7 3.5-1.4.6-.3 1.2-.7 1.6-1.3.4-.6.4-1.4 0-2.1-.3-.6-.8-1.1-1.2-1.7a94.7 94.7 0 0 0-4-4.6c-1-1-2.6.6-1.6 1.7zM50 70c4.1 3.7 10.6 3.6 14.6-.1 1-1 1.8-2.3 2.3-3.6.2-.6-.2-1.3-.8-1.5-.7-.2-1.2.2-1.5.8-.8 2.3-3 4-5.5 4.6-2.5.6-5.4-.1-7.4-1.9-.4-.4-1.2-.4-1.6 0-.5.4-.5 1.2 0 1.7z"/>
                <path d="M31.9 46.7c-.5 1-.6 2.2-.5 3.3 0 1.4.3 2.7.6 4 .3 1.2.7 2.3 1.4 3.3.5.7 1.3 1 2 1.2 2.1.4 4.2 0 6.2-.3s4-.8 6-1.4c1.4-.4 3-.8 3.6-2.2.3-.8.3-1.8.3-2.7a21 21 0 0 0-1.5-6.5c-.3-.7-.8-1.4-1.6-1.7l-1.9-.1H44a57.2 57.2 0 0 0-9.3 1.5 7 7 0 0 0-2 .8l-.7.8c-.7 1.3 1.3 2.5 2 1.2 0 0 .1-.2 0 0-.2.3 0 0 0 0s.2-.2 0 0l.3-.2h.2c-.2 0-.1 0 0 0l2.2-.7 2.8-.5.8-.1s.3 0 0 0h.5a65.3 65.3 0 0 1 6.5-.5h.3c.3 0-.2 0 0 0h.1l.2.1s-.3-.1-.2 0c.2 0-.2-.2 0 0h.1c-.1 0-.1-.1 0 0a6.4 6.4 0 0 1 .3.6v.2l.3.6.7 3v.6a17.3 17.3 0 0 1 .1 2v.4c0-.2 0-.2 0 0l-.1.5c0 .2 0-.2 0 0 0 0-.2.2 0-.1-.2.2.2 0 0 0H49l-.2.1c.1 0 .3 0 0 0l-.7.3a46.4 46.4 0 0 1-8.1 2h-.5a22.9 22.9 0 0 1-2.6.1h-.6l-.2-.1-.5-.1c-.1 0 .3.1 0 0V56c-.3-.1 0 0 0 0h-.2c0-.1.1 0 .1 0l-.2-.2-.4-.8c0-.2 0 .1 0 0l-.2-.5a13 13 0 0 1-.7-2.6 10 10 0 0 1-.2-1.6v-1.6c0-.3 0 .1 0 0l.1-.4.1-.3c0-.2 0 .1 0 0 .3-.6.2-1.3-.4-1.6-.5-.3-1.3-.2-1.6.4z"/>
                <path d="M50.5 50a23 23 0 0 1 5.3-1.3c2-.2 3.8 0 5.7.2.6 0 1.1-.6 1.1-1.2 0-.7-.5-1.1-1.1-1.2-2-.2-3.9-.4-5.8-.2-2 .2-4 .8-5.8 1.4-.6.2-1 .8-.8 1.5.1.6.8 1 1.4.8z"/>
                <path d="M61 42.5c-.5.7-.5 1.7-.6 2.6a19.2 19.2 0 0 0 .8 6.3c.2.8.6 1.6 1.4 2.1.7.4 1.7.6 2.5.7h3a32 32 0 0 0 6.6-.9 9 9 0 0 0 2.3-.8c.8-.5 1.2-1.2 1.5-2 .4-1.1.5-2.3.6-3.4.1-1 .1-2.1 0-3.2 0-.8 0-1.8-.5-2.6-.4-.6-1-.9-1.6-1-1.5-.4-3.3-.3-4.9-.3-2 .1-4.1.3-6.2.7-1.4.2-3 .4-4.2 1.1l-.7.7c-.4.5-.1 1.3.4 1.6.6.3 1.3.1 1.6-.4 0-.1-.2.3 0 .1h-.1c-.2.2 0 0 0 0h.2c.2-.2 0 0 0 0l.3-.2a15.7 15.7 0 0 1 3.2-.7h.6s.4-.1.1-.1h.4a55 55 0 0 1 7.8-.4h.4c.3.1-.2 0 0 0l.2.1.7.2c.1 0-.3-.2-.1 0a1 1 0 0 1-.2-.3v.2c0-.2 0-.3 0 0l.2.4v.5c0-.2 0 0 0 0v.4a17.4 17.4 0 0 1 0 3.9c0-.2 0 0 0 0v.4l-.4 1.4v.2l-.1.1-.3.5c0 .1 0-.2 0 0 0 0 .2-.1 0 0h-.2l-.3.2c.2 0 .2 0 0 0l-.3.1a18 18 0 0 1-3.9 1h-.4a27.6 27.6 0 0 1-5.2.2h-.3s-.3-.1-.1 0l-.2-.1a9 9 0 0 1-.8-.2H64c-.3-.1.2 0 0 0l-.1-.1-.1-.1c.1.1 0 .2 0 0l-.2-.3c.1.2 0 0 0 0l-.1-.4a13 13 0 0 1-.4-2l-.1-.3v-.2a21 21 0 0 1-.1-3.6v-.3l.1-.5v-.2c0 .3 0 .2 0 0 .9-1.2-1.1-2.4-2-1.1zm-23.9.1c2.8-1.7 6-2.5 9.2-2.3.6 0 1.1-.6 1.1-1.2 0-.7-.5-1.2-1.1-1.2-3.7-.2-7.3.7-10.4 2.6-1.2.8 0 2.9 1.2 2z"/>
                <path d="M37.2 41c2.8-1.7 5.8-2.7 9-3 .7 0 1.2-.5 1.2-1.1 0-.6-.5-1.3-1.2-1.2A23 23 0 0 0 36 39c-1.2.8 0 2.8 1.2 2zm25.6-3.8c3.4-.6 6.9-.8 10.3-.4.6 0 1.2-.6 1.2-1.2 0-.7-.6-1.1-1.2-1.2a40 40 0 0 0-11 .5c-.6.1-1 .9-.8 1.5.2.6.8.9 1.5.8z"/>
                <path d="M63 35.6c2.7-1.5 6-1.7 8.9-.4.5.3 1.2.2 1.6-.4.3-.5.1-1.3-.4-1.6a12.3 12.3 0 0 0-11.3.4c-1.3.8-.1 2.8 1.2 2zm-41 1c-.5 2.2-.7 4.6.1 6.7a7.5 7.5 0 0 0 3.6 4.4c.6.3 1.3.2 1.6-.4.3-.5.2-1.3-.4-1.6-3-1.5-3.3-5.5-2.7-8.5 0-.6-.2-1.3-.8-1.4-.6-.2-1.4.2-1.5.8z"/>
                <path d="M25 34.3a9.6 9.6 0 0 0 1.5 10c.4.5 1.2.4 1.6 0 .5-.5.4-1.2 0-1.6a7 7 0 0 1-1.5-3.5v-.4a11.4 11.4 0 0 1 0-1.6c0 .2 0 0 0 0v-.3a7 7 0 0 1 .4-1v-.3l.1-.1c.3-.6.2-1.3-.4-1.6-.5-.3-1.4-.2-1.6.4z"/>
                <path d="M26.5 26.3c-.3 1.7-.4 3.5-.4 5.3 0 .8 0 1.6.3 2.3.3.8 1 1.5 2 1.4.6 0 1.2-.5 1.1-1.1 0-.7-.5-1.3-1.1-1.2-.2 0-.2 0 0 0l.3.1c-.2-.1 0 .2 0 0-.1-.1-.1-.1 0 0l-.1-.2v-.5l-.1-.4a25.9 25.9 0 0 1 .2-5.1c.1-.6-.1-1.3-.8-1.5-.5 0-1.3.2-1.4.9z"/>
                <path d="M30 20.9c-1.5 3.5-1.2 7.6.9 10.8.3.6 1 .8 1.6.5.5-.4.7-1.1.4-1.7a9 9 0 0 1-.8-8.4c.3-.6.2-1.3-.4-1.6-.5-.3-1.4-.2-1.6.4zm4.6-3.2a8.8 8.8 0 0 0-.3 7.2c.3.6.8 1 1.5.8.5-.1 1-.8.8-1.4l-.5-1.5v-.2a7.7 7.7 0 0 1 .1-2.4 7.5 7.5 0 0 1 .4-1v-.3c.3-.5.2-1.3-.4-1.6-.5-.3-1.3-.1-1.6.4z"/>
                <path d="M38.2 17.3a5.5 5.5 0 0 0-.2 7.1c.4.5 1.3.5 1.7 0 .4-.5.4-1.1 0-1.6 0 0 0 .1 0 0l-.1-.1-.2-.3v-.2c-.1-.1 0 .2 0 0l-.1-.2a10.2 10.2 0 0 1-.1-.6V20.5s0 .2 0 0v-.1l.2-.7s0-.2 0 0a4.4 4.4 0 0 1 .4-.7s-.2.2 0 0c.5-.5.6-1.3 0-1.7-.4-.5-1.1-.5-1.6 0zm3.7-.6a5 5 0 0 0-.8 3.6c.2 1.3.9 2.4 2 3.2.1.1.6.2.8 0a1.2 1.2 0 0 0 .8-1.4c0-.3-.3-.5-.5-.7.3.3 0 0 0 0a4.6 4.6 0 0 1-.3-.2V21l-.2-.3h-.1c0-.1-.1-.3 0-.1 0 .2 0 0 0 0v-.2l-.2-.4s0-.3 0 0v-1l.1-.4c.1-.3 0 .2 0 0 .1-.3.2-.5.4-.6.3-.5 0-1.4-.4-1.7-.6-.3-1.3 0-1.6.5z"/>
                <path d="M43.8 16.3c-.4 1.9 0 3.8 1.3 5.2.4.5 1.3.5 1.7 0 .5-.5.4-1.1 0-1.6l-.1-.2s.1.2 0 .1a7.5 7.5 0 0 1-.3-.6l-.2-.3s.1.3 0 0a3.6 3.6 0 0 1 0-.4l-.2-.7V16c-.1-.2-.4-.5-.7-.5-.6-.2-1.3.1-1.4.8z"/>
                <path d="M46.7 14.6c-1 4.5 2 10 6.8 10.7.6 0 1.3-.2 1.5-.8.1-.6-.2-1.4-.9-1.5-1-.1-1.6-.4-2.4-1a6 6 0 0 1-1-.8l-.7-1a6.6 6.6 0 0 1-1-5c0-.6-.3-1.3-.9-1.5-.6-.1-1.3.2-1.4.9zm5.3-.4c0 2.2.5 4.3 1.5 6.3.9 1.9 2.8 3.7 5 2.6.5-.3.7-1 .4-1.6-.4-.6-1-.7-1.6-.4h-.1c-.2 0 .1 0 0 0 0 0-.3 0 0 0h-.3c.1 0 0 0 0 0l-.2-.2c-.2-.1 0 0 0 0l-.3-.2c-.5-.5-.8-1.1-1-1.7-.7-1.6-1-3.1-1-4.8 0-.6-.5-1.2-1.1-1.2-.7 0-1.2.6-1.2 1.2z"/>
                <path d="M55.9 13.2a7.2 7.2 0 0 0 4.3 8c.6.2 1.3-.3 1.4-.9.2-.6-.2-1.2-.8-1.4-.2-.1.2 0 0 0l-.2-.1-.4-.2-.2-.2c-.2-.1.1.1 0 0l-.3-.3a6.1 6.1 0 0 1-.5-.5s-.2-.2 0 0l-.2-.2-.1-.2a8 8 0 0 1-.4-.8c0 .1 0 .1 0 0l-.1-.2-.3-1c0-.2 0-.1 0 0V15a5.5 5.5 0 0 1 0-1v-.2c0 .3 0 .1 0 0 .1-.6-.1-1.3-.8-1.4-.6-.2-1.3.1-1.4.8zm4.1-.7c-.2 2.2.7 4.5 2.3 6 .5.4 1.2.5 1.7 0 .4-.5.5-1.3 0-1.7l-.5-.5-.2-.2s.1.2 0 0V16a5.8 5.8 0 0 1-.6-.9V15s0 .1 0 0a6 6 0 0 1-.3-1s-.1-.3 0-.1c0 .1 0 0 0 0v-.2l-.1-.4v-.7c0-.6-.6-1.2-1.1-1.2-.7 0-1.1.5-1.2 1.2z"/>
                <path d="M63.1 13c-.4.6-.6 1.4-.5 2.2a4 4 0 0 0 1 2.3c.4.5 1.2.4 1.7 0 .4-.5.4-1.2 0-1.7l-.2-.1.2.2-.3-.5.1.3-.2-.8v-.4.3l.2-.6-.1.2s0-.2.2-.3c.3-.5 0-1.3-.5-1.6-.5-.3-1.2-.1-1.6.4z"/>
                <path d="M65.7 14.2c-.4 3.5 1.8 7 5.1 8.4.6.2 1.3-.3 1.4-.9.2-.6-.2-1.2-.8-1.4-.3-.1.1 0 0 0l-.3-.1a7 7 0 0 1-.7-.5s-.2-.1 0 0l-.2-.1-.2-.2-.7-.8s.1.2 0 0l-.2-.3-.3-.4-.2-.5s-.1-.2 0-.1l-.1-.2a7.4 7.4 0 0 1-.4-1.5c0 .3 0 0 0 0V14.2c0-.6-.6-1.2-1.2-1.2-.7 0-1 .5-1.2 1.2z"/>
                <path d="M70 16c-.4 2.8 1.2 6 3.8 7.1.6.3 1.3.2 1.6-.4.3-.5.2-1.3-.4-1.6l-.7-.4-.3-.2s.2.2 0 0a11.4 11.4 0 0 1-.6-.5l-.1-.2c-.1-.2 0 0 0 0l-.3-.4a9 9 0 0 1-.2-.4l-.2-.4c0-.2.1.3 0 0v-.2a6.6 6.6 0 0 1-.4-1c0-.3 0 0 0 0v-1.5c.2-.6-.5-1.2-1.1-1.1-.7 0-1 .5-1.2 1.1z"/>
                <path d="M73.5 18c-.2 1.6 0 3.2.8 4.7a7 7 0 0 0 3.2 3.1c.6.3 1.3.2 1.6-.4.3-.5.2-1.3-.4-1.6l-.8-.4-.2-.2c-.1 0 .2.2 0 0l-.3-.3a6.4 6.4 0 0 1-.5-.5s-.2-.2 0 0l-.5-.8-.2-.4c0-.1 0 0 0 0l-.1-.3-.3-.8v-.2c0-.3 0 .1 0 0v-1.2s0-.4 0 0c0-.7-.2-1.4-.9-1.5-.5-.1-1.3.2-1.4.8z"/>
                <path d="M77.1 21.4c.2 2.3 1 4.6 2.3 6.4.4.5 1 .8 1.6.4.5-.3.8-1 .5-1.6a11.8 11.8 0 0 1-1.2-2l-.2-.4-.4-1.4-.2-.8c0-.1 0-.1 0 0V21.4c0-.6-.5-1.2-1.2-1.1-.6 0-1.2.5-1.2 1.1z"/>
                <path d="M80.2 24.9c-.3 2.9.3 5.8 1.5 8.5.2.6 1 .7 1.6.4.6-.3.7-1 .4-1.6-1-2.3-1.4-4.8-1.1-7.3 0-.7-.6-1.2-1.2-1.2-.7 0-1.1.5-1.2 1.2z"/>
                <path d="M82.9 33.1v3.1c0 .6.5 1.2 1.1 1.2.7 0 1.2-.5 1.2-1.2v-3c0-.7-.5-1.3-1.2-1.3-.6 0-1.1.6-1.1 1.2zM33.7 12.5c-4 2.5-6.5 7.3-6.2 12 0 .7.5 1.2 1.1 1.2.6 0 1.2-.5 1.2-1.2-.2-4 1.7-8 5-10 1.4-.8.2-2.8-1.1-2zm4-.9a14.6 14.6 0 0 0-3.5 7.5c0 .6.2 1.3.8 1.4.6.1 1.4-.2 1.5-.8a13.7 13.7 0 0 1 .8-3.2s0-.1 0 0l.2-.3.8-1.6.6-.7c0-.2-.1 0 0 0l.1-.3.4-.4c.4-.4.5-1.2 0-1.6-.5-.4-1.3-.5-1.7 0zM43 9.3a6.5 6.5 0 0 0-2.6 7c.1.6.8 1 1.4.8.6-.2 1-.8.8-1.4V15.1c0 .1 0 .2 0 0a4.9 4.9 0 0 1 0-.9s0-.3 0 0v-.4l.2-.7V13c0-.1 0 .2 0 0a8.1 8.1 0 0 1 .4-.6l.2-.3s-.2.2 0 0V12c.2 0 .2-.2.3-.3l.3-.2c.1-.1 0 0 0 0l.1-.1c.6-.4.8-1 .5-1.6-.4-.5-1.1-.8-1.6-.5z"/>
                <path d="M46.3 9c-1 .6-1.7 1.4-2.1 2.4a6 6 0 0 0-.5 3.5c0 .2.3.5.6.7a1.2 1.2 0 0 0 1.6-.4v-1c.1.1.1.3.1.1V13.4v.1l.1-.6.1-.3v-.1c.1-.2 0 .2 0 0l.3-.5.2-.3s0 .1 0 0l.4-.4.3-.2s-.2.1-.1 0h.2c.5-.4.7-1.1.4-1.7-.4-.5-1-.8-1.6-.4z"/>
                <path d="M48.3 10.1a3 3 0 0 0-1.5 2c-.2.7-.1 1.7.4 2.4l.7.5h.9c.2-.2.5-.5.5-.8v-.9c-.2 0-.2-.2-.3-.3a323289 323289 0 0 1 0-.2v-.2.3l.2-.6-.1.3.2-.4-.1.2.3-.3-.3.2.3-.2c.2 0 .5-.4.5-.7v-.9l-.8-.5c-.3-.1-.6 0-.9.1z"/>
                <path d="M49.9 9.9a3.4 3.4 0 0 0 0 3.5c0 .3.4.5.6.6l1-.1.5-.7-.1-1-.2-.2a323289 323289 0 0 1 0-.3v-.3.3c0-.2 0-.4.2-.6a323289 323289 0 0 1 .1-1c0-.2-.2-.5-.5-.7-.3-.1-.6-.2-.9 0-.3 0-.5.2-.7.5zM32.3 14a8.9 8.9 0 0 0 .3 9.5c.3.5 1 .7 1.6.4.5-.3.8-1.1.4-1.6a7 7 0 0 1-.9-1.7l-.2-1V19.3a6.8 6.8 0 0 1 0-1.5v-.4a6.8 6.8 0 0 1 .2-1l.2-.2V16l.2-.2c0-.2.2-.4.3-.5.3-.6 0-1.3-.5-1.6-.5-.4-1.2-.2-1.6.4zm-6.5 8.1a13 13 0 0 0 .4 11.9c.7 1.3 2.7.1 2-1.2a10.6 10.6 0 0 1-.3-9.5c.2-.6.1-1.3-.5-1.6-.5-.3-1.3-.2-1.6.4zM21.7 28c-1 2.3-1 5 .4 7 .3.6 1 .8 1.6.5.5-.3.8-1 .4-1.6l-.4-.6c0-.1-.2-.4 0-.2l-.2-.3a6.2 6.2 0 0 1-.2-.9v-1.3c0-.2 0-.2 0 0v-.2l.2-.7.1-.3c0-.1 0-.1 0 0v-.2c.3-.5.2-1.3-.4-1.6-.5-.3-1.3-.2-1.5.4z"/>
                <path d="M50.7 9c.8 2.8 2.8 5 5.5 6 .6.2 1.3-.3 1.5-.8.1-.7-.2-1.3-.9-1.5h-.2c-.2-.2.3 0 0 0a10.9 10.9 0 0 1-1-.7l-.2-.1h-.1c-.1-.1-.1-.1 0 0v-.1l-.3-.2a7.6 7.6 0 0 1-.8-.9H54c0-.1 0-.1 0 0v-.1a7.4 7.4 0 0 1-.8-1.4c-.1-.1 0 0 0 0l-.3-.8c-.2-.6-.9-1-1.5-.8-.6.2-1 .8-.8 1.4z"/>
                <path d="M55.4 10.4a6 6 0 0 0 4.8 3.2 1.2 1.2 0 0 0 1.1-1.2c0-.7-.5-1.1-1.1-1.2H60h.3a4.6 4.6 0 0 1-1-.2l-1-.6.3.2a5 5 0 0 1-.9-.9l.2.3-.5-.8c-.3-.5-1-.7-1.6-.4-.6.3-.7 1-.4 1.6z"/>
                <path d="M58.9 7.7c0 2.4 2 4.7 4.6 4.7.6 0 1.2-.5 1.2-1.1 0-.7-.6-1.2-1.2-1.2H63h.3l-.8-.2.3.1a4 4 0 0 1-.8-.4l.2.1a4 4 0 0 1-.6-.6l.2.2a4 4 0 0 1-.5-.8v.3l-.2-1c0-.6-.5-1.2-1.1-1.2-.7 0-1.2.5-1.2 1.2z"/>
                <path d="M63.3 8.7v1.1a2.8 2.8 0 0 0 .4.8l.3.4c.2 0 .3.2.4.3l.5.2.6.1.4-.1.4-.2.2-.4c.1-.2.2-.3.1-.5 0-.3 0-.6-.3-.8l-.2-.2-.6-.2h.3-.3l.3.1-.3-.1.3.2-.2-.3.1.3-.1-.3V9l-.1-.4c0-.2-.2-.3-.3-.4a.9.9 0 0 0-.4-.2l-1 .1-.5.7z"/>
                <path d="M54.2 8.5c2.8.2 5.6 1 8 2.5 1.4.8 2.6-1.2 1.3-2-2.9-1.7-6-2.6-9.3-2.8-.6 0-1.2.5-1.2 1.2 0 .6.6 1 1.2 1.1z"/>
                <path d="M59.6 7a14 14 0 0 1 8.2 7.5c.3.5 1 .7 1.6.4.6-.4.7-1 .4-1.6-1.9-4-5.4-7.2-9.6-8.6-.6-.2-1.3.2-1.4.8-.2.6.2 1.2.8 1.4z"/>
                <path d="m66.6 9.6 1.6 1.6.3.4s.2.2.1 0c0 .2.1.2.2.3l.6 1a13 13 0 0 1 1.7 4c.1.6.8 1 1.4.8.6-.2 1-.8.8-1.4a16 16 0 0 0-5-8.4c-.5-.4-1.2-.4-1.7 0-.4.5-.5 1.3 0 1.7zm5.1 1.5c2.6 2 4.3 5 4.7 8.3 0 .6.5 1.2 1.2 1.2.6 0 1.2-.6 1.2-1.2-.5-3.9-2.4-7.5-5.5-10-.5-.3-1.1-.4-1.6 0-.4.5-.5 1.4 0 1.7z"/>
                <path d="M77.8 15.8c1.4 2.6 2 5.5 2 8.4.1 1.5 2.4 1.5 2.4 0 0-3.4-.8-6.7-2.4-9.6-.3-.6-1-.7-1.6-.4-.5.3-.7 1-.4 1.6z"/>
                <path d="m81.3 22.4 1.4 6.9c.1.6.8 1 1.4.8.7-.2 1-.8.8-1.4l-1.4-6.9c0-.6-.8-1-1.4-.8-.6.2-1 .8-.8 1.4zm2.6 9v4.5c0 .6.5 1.2 1.1 1.2.7 0 1.2-.6 1.2-1.2v-4.5c0-.6-.5-1.2-1.2-1.2-.6 0-1.1.5-1.1 1.2zM26 46.8c-2-.6-4.4-.8-6.3.3a6 6 0 0 0-2.6 4c-.3 1.7 0 3.4.7 4.9a7 7 0 0 0 4.3 3.2c2 .6 4 .3 6-.5.5-.3.7-1.1.4-1.6-.4-.6-1-.7-1.6-.4-1.1.4-2.5.6-3.6.4a5.1 5.1 0 0 1-2.9-1.6l-.2-.2-.5-.8V54.2a6 6 0 0 1-.3-1V52s0-.2 0 0v-.2a5 5 0 0 1 .3-1v-.2l.5-.7s.1-.2 0 0a3.1 3.1 0 0 1 .5-.5c.1-.2 0-.1 0 0l.2-.2.5-.3 1.2-.3c1 0 1.8.2 2.7.5.6.2 1.3-.2 1.5-.8.1-.7-.2-1.3-.9-1.5z"/>
                <path d="m23 51.9 3.3.4c.3 0 .7-.1.9-.3.2-.2.3-.5.3-.8 0-.3-.1-.7-.3-.9-.1 0-.2 0-.3-.2l-.6-.1-3.4-.4c-.3 0-.6.1-.8.3-.2.2-.4.5-.4.8 0 .3.2.6.4.9l.2.1c.2.2.4.2.6.2zm62-8.6c-.1.1 0 0 0 0V43l.2-.2s-.1.2 0 0l.7-.6.3-.2h.3a4.8 4.8 0 0 1 .7-.3h.1a3 3 0 0 1 1.6.4c.5.3 1 .7 1.3 1.2.6 1.1.8 2.5.5 3.7l-.1.2a7.3 7.3 0 0 1-.4.7l-.3.4-1.5 1.5c-1 .9-2.3 1.8-3.7 2.4-.5.2-.7 1-.4 1.6.4.6 1 .6 1.6.4 1.5-.7 2.9-1.7 4.1-2.7 1.2-1 2.5-2.4 3-4 1-3.6-1.5-8.2-5.5-8.1-2.2 0-4 1.3-4.8 3.3-.3.6.2 1.3.8 1.4.7.2 1.2-.2 1.4-.8z"/>
                <path d="m84.4 47.2 1-.9c-.2 0-.2.1-.3.2a6 6 0 0 1 1.3-.8l-.3.2c.3-.2.6-.3 1-.3.6-.2 1-1 .8-1.5-.2-.6-.8-1-1.4-.8a7 7 0 0 0-3.8 2.3 1.2 1.2 0 0 0 0 1.7c.2.1.5.3.9.3.2 0 .6-.1.8-.4zm-62.1 72.9a45.1 45.1 0 0 1 20.3-23c2.6-1.4 5.2-2.6 8-3.5l-1.1-2c-1.6 1.6-3.5 3.5-3.4 6 0 1.8 1.1 3.3 2.8 4a40.5 40.5 0 0 0 17.4.8c3.3-.5 8.2-1.8 9-5.7a4 4 0 0 0-.4-2.7l-1.3-1.7a23 23 0 0 0-2-2l-.9 2c5.3-.1 10.7.7 15.3 3.2a24.8 24.8 0 0 1 11.2 12.1c1.4 3.1 2.4 6.3 3.5 9.6.2.6.8 1 1.4.8.6-.2 1-.9.9-1.5-2-6-4-12.1-8.2-17A27.4 27.4 0 0 0 80.4 91c-3.2-.8-6.4-1-9.7-.9-1 0-1.7 1.3-.8 2a24.5 24.5 0 0 1 2.6 2.6c0 .1-.1-.1 0 .1l.2.3.2.2v.2c0-.2 0-.2 0 0 .1.5 0 1-.2 1.6-.3.5-.8 1-1.4 1.4-1.3.8-3 1.2-4.5 1.6a43.3 43.3 0 0 1-15.3 0c-1.2-.2-2.5-.6-3-1.7a2.4 2.4 0 0 1 0-1.5v-.2l.1-.2.1-.2a6.7 6.7 0 0 1 .7-1l1.7-1.9c.8-.8 0-2.3-1.1-2a47.8 47.8 0 0 0-30 28.2c-.2.6.3 1.3.8 1.5.7.1 1.2-.3 1.5-.9zM47 62a5.7 5.7 0 0 0-2 4 1.2 1.2 0 0 0 1.2 1.2c.3 0 .6-.1.8-.4.2-.2.3-.5.3-.8v-.2.3a4.7 4.7 0 0 1 .2-.9l.6-1-.2.2.8-.7c.2-.2.3-.6.3-.9 0-.2-.1-.6-.3-.8-.2-.2-.5-.3-.9-.3h-.3c-.2 0-.3.2-.5.3z"/>
                <path d="m48.5 62.6-.6 2.7v.9l.8.5.9-.1.5-.7.7-2.7-.1-.9-.7-.5-1 .1-.5.7zm4.2 0-.4 1.8.1.9c.2.2.4.5.7.5l1-.1.5-.7.4-1.8-.1-.9c-.2-.2-.4-.5-.7-.5l-1 .1-.5.7zm2.8-.5-.2.4v.5a3 3 0 0 0 0 .5v.5l.2.6c0 .2.2.3.3.3.1.2.3.2.4.3h.5c.1 0 .3 0 .4-.2.3-.1.5-.4.6-.7V64c0-.2 0-.4-.2-.6l.1.3V63v.3l.1-.5v-.5l-.2-.4-.4-.3c-.2-.1-.6-.2-.9-.1-.2 0-.5.2-.7.5zm2.3.5.5 1.3c0 .1 0 .3.2.4l.3.3.4.1h.5c.3 0 .6-.3.7-.5.2-.3.2-.6.1-1l-.4-1.3-.2-.4-.3-.3a.9.9 0 0 0-.5-.1 1 1 0 0 0-.5 0l-.7.6c-.1.2-.2.6 0 .9zm3.1-1.2a2.8 2.8 0 0 0 .7 1.9l.5.4.5.2h.4l.4-.3c.2 0 .3-.2.3-.3.2-.3.2-.6.1-1v-.2l-.5-.4.2.1-.3-.3.2.3-.2-.4.1.3-.1-.4V61a1 1 0 0 0-.3-.4.9.9 0 0 0-.4-.2.9.9 0 0 0-.5-.1c-.3 0-.6.1-.8.3l-.2.3-.1.6z"/>
                <path d="m63 62 1.5 1.8.4.2.4.1c.3 0 .7-.1.9-.3l.3-.9v-.3c0-.2-.2-.4-.3-.5l-1.6-1.8a.9.9 0 0 0-.3-.2.9.9 0 0 0-.5-.1c-.3 0-.6.1-.8.3-.2.2-.4.5-.4.9v.3l.4.5zm3.3-.7 1.6 2.4c.1.3.4.5.7.6l.9-.1.5-.7-.1-1-1.5-2.4-.7-.5h-1l-.5.8.1.9zm-24 4.7a9.8 9.8 0 0 0-.4 3.8c0 .3 0 .6.3.8.2.2.6.4.8.3.6 0 1.3-.5 1.2-1.1v-2 .4l.4-1.7c.2-.5-.2-1.3-.8-1.4-.7-.2-1.3.2-1.5.8zm27.6-4 .3.6-.1-.2.8 2.6a1.2 1.2 0 0 0 1.4.8c.7-.2 1-.8.8-1.4a15 15 0 0 0-1.2-3.6c-.1-.3-.4-.5-.7-.6-.3 0-.7 0-.9.2-.3.1-.5.4-.5.7v.9zm-36.5 7a7.9 7.9 0 0 0-1.3 4c0 .7.6 1.3 1.2 1.3.7 0 1.2-.6 1.2-1.2v-.8.4c0-.6.2-1.2.5-1.8l-.1.3.5-1c.4-.6.2-1.4-.4-1.7-.6-.3-1.2 0-1.6.5zm3.3 2.9c-.6 1.8-.8 3.8-.5 5.7 0 .3.3.6.5.7a1.2 1.2 0 0 0 1.6-.4c.2-.3.2-.6.2-1v-.4a9 9 0 0 1 0-1.8s0-.4 0 0v-.4a9.9 9.9 0 0 1 .5-1.8c.2-.6-.2-1.3-.8-1.5-.7-.1-1.2.2-1.5.9zm2.3 3c-.2 2 0 4 .4 5.8.1.6.9 1 1.4.8.7-.2 1-.8.9-1.4l-.3-1.3v-.5l-.1-.7v-2.7c.1-.6-.5-1.2-1.1-1.2-.7 0-1.1.5-1.2 1.2zm3.6 3.4c-.3 1.7 0 3.4.8 4.9.3.5 1 .8 1.6.4.5-.3.7-1 .4-1.6a7 7 0 0 1-.2-.4v-.1l-.2-.3a6 6 0 0 1-.2-1V78c-.2-.2-.5-.5-.8-.5-.6-.1-1.3.2-1.4.8zm3.3 2.7c.3 1.2.8 2.5 1.5 3.7.3.6 1 .8 1.6.4.5-.3.7-1 .4-1.6l-.7-1.4.1.3-.7-2c-.1-.7-.8-1.1-1.4-1-.6.3-1 .9-.8 1.5zm4.1-.5c.6 2.8 2.4 5.3 4.8 6.9.6.3 1.3 0 1.6-.5.3-.5.2-1.2-.4-1.6l-.8-.5c.2 0 .1 0 0 0l-.2-.2a8.8 8.8 0 0 1-1-1v-.1c-.1 0-.3-.3-.2-.1.1.1 0-.1 0-.1l-.2-.2a10.2 10.2 0 0 1-.7-1.2v-.2s-.2-.3 0 0l-.6-1.8c-.1-.6-.9-1-1.5-.9-.6.2-.9.8-.8 1.5zm4.4-1.3c.6 3.4 3 6.5 6.2 8 .5.2 1.3.1 1.6-.5.3-.5.2-1.3-.4-1.6a10.2 10.2 0 0 1-1.5-.8L60 84c-.2-.2 0 0 0 0l-1.7-1.7c.1.1 0 0 0 0 0-.2-.1-.2-.2-.3a8.3 8.3 0 0 1-.8-1.5s-.2-.3 0-.1l-.2-.3a9.4 9.4 0 0 1-.5-1.7c0-.6-.8-1-1.4-.8-.6.2-1 .8-.8 1.5zm5.8.4c.8 2 1.8 3.8 3.2 5.4.4.5 1.3.4 1.7 0 .4-.5.4-1.2 0-1.7a18 18 0 0 1-.5-.5v-.1s0 .1 0 0l-.2-.3a15.5 15.5 0 0 1-1.7-3s-.1-.2 0 0c0 .1 0 0 0 0l-.2-.4c-.1-.3-.3-.6-.6-.7-.2-.2-.6-.2-.9-.1-.5.1-1 .8-.8 1.4zm3.6 0a6.2 6.2 0 0 0 3 4.3c.4.3 1.2.1 1.5-.4.3-.6.2-1.3-.4-1.6l-.4-.3.2.1-.9-.9.2.3-.7-1.1.1.2a5 5 0 0 1-.3-1.2c0-.3-.3-.6-.6-.7a1.2 1.2 0 0 0-1.6.4V79.6zm4.2-1.8a6.7 6.7 0 0 0 4.1 4.6c.3.2.7 0 1 0 .2-.2.4-.5.4-.8v-.9l-.8-.5h.2l-1.2-.6.3.2-1-1 .2.2-.8-1.2.2.2c-.2-.2-.2-.5-.3-.8-.1-.6-.9-1-1.5-.8-.6.2-1 .8-.8 1.4zm4-2.4c.6 1.7 1.7 3 3.1 4 .2.2.6.3 1 .2a1.2 1.2 0 0 0 .7-1.5c0-.3-.2-.5-.5-.7l-.3-.2.2.2a7 7 0 0 1-1.2-1.2l.2.2c-.4-.4-.6-1-.9-1.5l.1.3-.1-.4c-.1-.3-.3-.6-.6-.7-.2-.2-.6-.3-.9-.2-.5.2-1 .9-.8 1.5zm3-2.5c0 1.2.7 2.3 1.7 3 .3.1.6.2 1 0a1.2 1.2 0 0 0 .7-1.4c0-.3-.2-.5-.5-.7l-.2-.1.2.1c-.2 0-.3-.2-.4-.4l.2.3-.3-.6a237740 237740 0 0 1 0-.2c0-.3-.2-.6-.4-.9-.2-.2-.5-.3-.8-.3a1.2 1.2 0 0 0-1.2 1.2zm2-1.4 1.2 1.3c.1.2.2.2.4.3h.9l.4-.3c.2-.2.3-.5.3-.8v-.3c0-.2-.2-.4-.3-.5l-1.1-1.3a.9.9 0 0 0-.4-.3.9.9 0 0 0-.5 0h-.4a1 1 0 0 0-.4.3c-.2.2-.4.5-.4.8v.3l.4.5zm2.4-3.4a4 4 0 0 0 .9 1.4 4.2 4.2 0 0 0 1 .8l.5.1h.5c.1 0 .3 0 .4-.2l.3-.3c.1-.3.2-.6 0-1v-.2l-.5-.4-.5-.3.3.1a3 3 0 0 1-.5-.4l.2.2-.4-.6.2.3-.1-.1-.2-.4-.3-.3a.9.9 0 0 0-.5-.2 1 1 0 0 0-.4 0c-.3.1-.6.3-.7.6-.2.3-.3.6-.2 1zM27.8 46.6v.1l-.4 1.4v-.3c0 .4-.3.8-.6 1.2l.2-.2c-.3.3-.4.5-.4.8 0 .3.1.7.3.9l.9.3c.3 0 .6-.1.8-.3l.6-1a7.2 7.2 0 0 0 .9-3c0-.6-.6-1.1-1.2-1.1s-1.1.5-1.1 1.2zm1 3.8-1.9 2.8c-.1.3-.2.6 0 1 0 .2.2.5.5.6a1.2 1.2 0 0 0 1.6-.4c.5-1 1.1-2 1.8-2.8.2-.3.2-.7.1-1 0-.2-.3-.5-.5-.6-.3-.2-.6-.2-1-.1h-.2l-.4.5zm51.5-6.8a5.7 5.7 0 0 0 2.6 2.7c.3.1.6.2.9.1a1.2 1.2 0 0 0 .8-1.4c0-.3-.3-.6-.5-.7l-.8-.5.2.1a5 5 0 0 1-.8-.8l.2.2c-.3-.2-.4-.6-.6-.9-.1-.2-.4-.5-.7-.5-.3-.1-.6 0-.9.1-.2.2-.5.4-.5.7v.9zm-1.7-5.2c1 .8 1.8 1.7 2.7 2.6a1.2 1.2 0 0 0 1.7 0c.2-.2.3-.5.3-.8l-.3-.9c-1-.8-1.8-1.7-2.7-2.6a1.2 1.2 0 0 0-1.7 0 1.2 1.2 0 0 0 0 1.7zm1.8-1.8 1.6 1.7.4.3h.4c.3 0 .6 0 .8-.3.2-.2.4-.5.4-.8v-.3l-.4-.5-1.5-1.8a.9.9 0 0 0-.4-.2.9.9 0 0 0-.4-.1c-.3 0-.7 0-.9.3-.2.2-.3.5-.3.8v.4c0 .2.2.3.3.5z"/>
                <path d="m83.4 38.5-.2.4V40l.2.4.1.2.3.4c.3.3.6.4 1 .5h.4l.4-.1c.2 0 .3-.2.3-.3.2-.1.2-.2.3-.4v-.3c0-.2 0-.4-.2-.6-.1-.3-.4-.5-.7-.5l.3.1-.2-.2.2.3-.2-.3.2.3-.1-.3v-.5l-.2-.4-.3-.3c-.3-.1-.6-.2-.9 0a336582.2 336582.2 0 0 0-.7.5z"/>
                <path d="M83.7 37.6c0 .2.1.5.3.7l.2.5.5.6.6.4c.3.2.6.2 1 .1 0 0 .2 0 .3-.2.2 0 .3-.2.3-.3a1.2 1.2 0 0 0-.4-1.6l-.2-.2.2.2-.4-.4.2.2-.3-.5.1.3-.1-.4-.2-.4c-.1-.2-.2-.3-.4-.3a.9.9 0 0 0-.4-.2 1 1 0 0 0-.5 0c-.3.1-.5.3-.7.6l-.1.3v.6zm-55 18.6c-.6 1.8-1 3.7-1.2 5.6 0 .6.6 1.2 1.2 1.2.7 0 1-.5 1.1-1.2l.1-.7c0-.3 0 .3 0 0v-.4a25.8 25.8 0 0 1 1-3.9c.2-.6-.2-1.3-.8-1.4-.6-.2-1.2.2-1.4.8zm.6 8.3v2.8c0 .3.1.7.3.9.2.2.5.3.8.3.7 0 1.2-.5 1.2-1.2v-2.8c0-.3-.1-.7-.3-.9-.2-.2-.6-.3-.9-.3-.6 0-1.1.5-1.1 1.2zm50.7-.3.8 1-.1-.2 1.2 1.8c.3.5 1 .8 1.6.4.5-.3.7-1 .4-1.6-.6-1.1-1.4-2.1-2.3-3-.4-.5-1.2-.5-1.6 0-.5.4-.5 1.1 0 1.6z"/>
                <path d="m80.7 61.7 1.3 2c.1.3.4.5.7.6l.9-.1c.2-.2.5-.4.5-.7v-1l-1.4-2c-.1-.2-.4-.4-.7-.5l-.9.1-.5.7.1 1z"/>
                <path d="m82.2 60.6.4 1 .2.5.3.3.5.1h.5a336582.4 336582.4 0 0 1 .7-.6V61c0-.3-.2-.7-.4-1 0-.2 0-.4-.2-.5l-.3-.3a.9.9 0 0 0-.4-.1 1 1 0 0 0-.5 0l-.3.1-.4.5-.1.2v.7zM44.6 7.4c-.5-.4-1-.5-1.7-.4l-1 .4A13.2 13.2 0 0 0 37 11c-.2.2-.3.4-.3.7-.1.4 0 .7.1 1.1.3.6 1.2.7 1.6.4.6-.4.7-1 .5-1.6v.7s.2-.2 0 0l.1-.1.1-.2a11.6 11.6 0 0 1 3.3-2.2h.1c.2-.2-.1 0 0 0l.4-.2.4-.2h.2c-.3 0-.5 0-.7-.2.5.3 1.2.5 1.7 0 .4-.5.5-1.3 0-1.7zm3.6-2.2c-.9 1-1.3 2.4-1 3.7.2 1.2 1 2.2 2 2.8.5.3 1.3.1 1.6-.4.3-.6.2-1.3-.4-1.6l-.3-.2s-.1-.1 0 0l-.2-.2-.1-.1c-.1-.2 0 0 0 0l-.1-.2-.2-.3c0-.1.1.3 0 0v-.3s-.1-.3 0 0c0 .1 0 0 0 0V7.3c.1-.1 0 .3 0 0h.1l.2-.3c.1-.2-.1.1 0 0 .5-.5.6-1.2 0-1.7-.4-.4-1.1-.4-1.6 0z"/>
                <path d="M49.4 6.1c-.5 1.3-.4 2.8.3 4 .3.6 1 .8 1.6.5.5-.4.7-1 .4-1.6l-.1-.3V9a4 4 0 0 1-.2-1v-.7.4l.3-1c0-.2 0-.6-.2-.8 0-.3-.4-.5-.7-.6l-.9.1-.2.2-.3.5z"/>
                <path d="M51.8 6.4A9.1 9.1 0 0 1 59.4 9c.5.4 1.2.4 1.7 0 .4-.5.4-1.2 0-1.7a11.5 11.5 0 0 0-9.3-3.1c-.6 0-1.2.5-1.2 1.2 0 .5.6 1.2 1.2 1.1zm-5.5-1.8c-2 1.2-3 3.5-3.8 5.6-.2.6.3 1.3.9 1.4.6.2 1.2-.2 1.4-.8l.3-.7.1-.3c0-.1 0-.3 0 0v-.2a11 11 0 0 1 1.1-1.9l.1-.1.2-.2a6.8 6.8 0 0 1 .5-.5h.1l.3-.3c.5-.3.8-1 .4-1.6-.3-.5-1-.7-1.6-.4zM33.8 14.7l.2-.3.2-.2s.1-.2 0-.1h.1l.2-.2c0-.2.2-.3.3-.4a9 9 0 0 1 .9-.9s.1-.1 0 0l.2-.1.7-.5.4-.2c.1 0-.2 0 0 0h.2l.8-.3c.1 0 0 0 0 0h.7c.6 0 1.2-.5 1.2-1.2 0-.6-.5-1.1-1.2-1.1-3-.1-5.3 2-7 4.3-.3.5 0 1.4.5 1.6.6.3 1.2.1 1.6-.4zm-6.5 4.6a5.8 5.8 0 0 0-2.6 2.1 12.2 12.2 0 0 0-2.3 5.5c-.3 1.3-.3 2.4.5 3.4.4.5 1.2.4 1.7 0 .4-.5.4-1.2 0-1.7V28l.1-1a10.9 10.9 0 0 1 1.9-4.1c.3-.5.8-1.1 1.3-1.3.6-.3 1-.8.9-1.5-.2-.5-.9-1-1.5-.8zm40.5-9.9a11.2 11.2 0 0 1 6.7 7.4c.4 1.5 2.7.9 2.3-.6a13.7 13.7 0 0 0-8.4-9c-.6-.3-1.3.2-1.5.8-.1.6.3 1.2.9 1.4z"/>
            </g>
        </g>
    </g>
</svg>
